<?xml version="1.0" encoding="UTF-8"?>
<svg xmlns="http://www.w3.org/2000/svg" xmlns:xlink="http://www.w3.org/1999/xlink" width="128px" height="128px" viewBox="0 0 128 128" version="1.1">
<g id="surface1">
<path style=" stroke:none;fill-rule:nonzero;fill:rgb(100%,89.019608%,65.098041%);fill-opacity:1;" d="M 39.6875 22.496094 C 39.6875 33.613281 48.703125 42.625 59.820312 42.625 C 70.9375 42.625 79.949219 33.613281 79.949219 22.496094 C 79.949219 11.378906 70.9375 2.367188 59.820312 2.367188 C 48.703125 2.367188 39.6875 11.378906 39.6875 22.496094 Z M 39.6875 22.496094 "/>
<path style=" stroke:none;fill-rule:nonzero;fill:rgb(7.450981%,7.450981%,7.450981%);fill-opacity:1;" d="M 59.820312 44.515625 C 47.664062 44.515625 37.695312 34.652344 37.695312 22.398438 C 37.695312 10.140625 47.664062 0.375 59.820312 0.375 C 71.976562 0.375 81.941406 10.238281 81.941406 22.496094 C 81.941406 34.75 71.976562 44.515625 59.820312 44.515625 Z M 59.820312 4.359375 C 49.851562 4.359375 41.683594 12.53125 41.683594 22.496094 C 41.683594 32.460938 49.851562 40.53125 59.820312 40.53125 C 69.785156 40.53125 77.953125 32.359375 77.953125 22.398438 C 77.953125 12.429688 69.785156 4.359375 59.820312 4.359375 Z M 59.820312 4.359375 "/>
<path style=" stroke:none;fill-rule:nonzero;fill:rgb(100%,89.019608%,65.098041%);fill-opacity:1;" d="M 48.558594 22.195312 C 48.558594 28.414062 53.601562 33.457031 59.820312 33.457031 C 66.039062 33.457031 71.078125 28.414062 71.078125 22.195312 C 71.078125 15.976562 66.039062 10.9375 59.820312 10.9375 C 53.601562 10.9375 48.558594 15.976562 48.558594 22.195312 Z M 48.558594 22.195312 "/>
<path style=" stroke:none;fill-rule:nonzero;fill:rgb(7.450981%,7.450981%,7.450981%);fill-opacity:1;" d="M 59.820312 35.449219 C 52.546875 35.449219 46.566406 29.570312 46.566406 22.195312 C 46.566406 14.820312 52.546875 8.945312 59.820312 8.945312 C 67.09375 8.945312 73.070312 14.820312 73.070312 22.195312 C 73.070312 29.570312 67.09375 35.449219 59.820312 35.449219 Z M 59.820312 12.929688 C 54.738281 12.929688 50.554688 17.113281 50.554688 22.195312 C 50.554688 27.28125 54.738281 31.464844 59.820312 31.464844 C 64.902344 31.464844 69.085938 27.28125 69.085938 22.195312 C 69.085938 17.113281 64.902344 12.929688 59.820312 12.929688 Z M 59.820312 12.929688 "/>
<path style=" stroke:none;fill-rule:nonzero;fill:rgb(100%,83.92157%,86.274511%);fill-opacity:1;" d="M 123.296875 67.636719 L 116.71875 67.636719 C 114.03125 59.265625 108.050781 51.792969 99.78125 46.015625 C 101.574219 41.929688 103.964844 38.242188 107.054688 35.050781 C 105.460938 35.351562 99.976562 35.945312 87.921875 39.535156 C 79.152344 36.046875 69.6875 34.253906 60.21875 34.253906 C 40.984375 34.253906 23.945312 41.230469 13.382812 51.992188 C 11.089844 49.300781 7.101562 48.902344 4.414062 51.09375 C 1.722656 53.289062 1.324219 57.375 3.515625 60.0625 C 4.117188 61.160156 5.011719 61.757812 6.007812 62.15625 C 3.417969 67.039062 2.023438 72.421875 2.023438 77.898438 C 2.023438 92.550781 11.6875 105.503906 26.535156 113.375 L 26.535156 122.945312 C 26.535156 124.4375 27.734375 125.632812 29.226562 125.632812 L 43.578125 125.632812 C 45.070312 125.632812 46.265625 124.4375 46.265625 122.945312 L 46.265625 120.15625 C 55.535156 121.847656 65.101562 121.847656 74.46875 120.15625 L 74.46875 122.945312 C 74.46875 124.4375 75.664062 125.632812 77.15625 125.632812 L 91.507812 125.632812 C 93.003906 125.632812 94.199219 124.4375 94.199219 122.945312 L 94.199219 113.277344 C 105.257812 107.296875 113.429688 98.53125 116.820312 88.265625 L 123.398438 88.265625 C 124.992188 88.265625 126.1875 86.96875 126.1875 85.476562 L 126.1875 70.527344 C 126.085938 68.933594 124.890625 67.636719 123.296875 67.636719 Z M 123.296875 67.636719 "/>
<path style=" stroke:none;fill-rule:nonzero;fill:rgb(7.450981%,7.450981%,7.450981%);fill-opacity:1;" d="M 91.40625 127.625 L 77.15625 127.625 C 74.570312 127.625 72.476562 125.535156 72.476562 122.945312 L 72.476562 122.546875 C 64.40625 123.742188 56.332031 123.742188 48.257812 122.546875 L 48.257812 122.945312 C 48.257812 125.535156 46.167969 127.625 43.578125 127.625 L 29.226562 127.625 C 26.632812 127.625 24.542969 125.535156 24.542969 122.945312 L 24.542969 114.570312 C 9.195312 106 0.03125 92.351562 0.03125 77.898438 C 0.03125 72.71875 1.226562 67.636719 3.417969 62.953125 C 2.917969 62.554688 2.421875 62.054688 1.921875 61.558594 C -1.066406 57.96875 -0.46875 52.6875 3.015625 49.699219 C 4.710938 48.304688 6.90625 47.609375 9.195312 47.804688 C 10.691406 47.90625 12.085938 48.503906 13.28125 49.300781 C 24.542969 38.640625 41.984375 32.261719 60.117188 32.261719 C 69.6875 32.261719 78.953125 33.953125 87.921875 37.34375 C 98.585938 34.15625 104.0625 33.359375 106.15625 33.058594 L 106.65625 32.960938 C 107.453125 32.859375 108.351562 33.257812 108.75 33.953125 C 109.148438 34.75 109.046875 35.648438 108.449219 36.25 C 105.957031 38.9375 103.867188 41.929688 102.273438 45.214844 C 109.84375 50.796875 115.324219 57.773438 118.117188 65.445312 L 123.296875 65.445312 C 125.988281 65.445312 128.078125 67.636719 128.078125 70.226562 L 128.078125 85.175781 C 128.078125 87.867188 125.890625 89.960938 123.296875 89.960938 L 118.117188 89.960938 C 114.527344 99.625 106.757812 108.195312 96.09375 114.171875 L 96.09375 122.644531 C 96.09375 125.535156 94 127.625 91.40625 127.625 Z M 74.46875 118.160156 C 74.96875 118.160156 75.367188 118.359375 75.765625 118.65625 C 76.261719 119.054688 76.460938 119.554688 76.460938 120.15625 L 76.460938 122.945312 C 76.460938 123.34375 76.757812 123.640625 77.15625 123.640625 L 91.507812 123.640625 C 91.90625 123.640625 92.207031 123.34375 92.207031 122.945312 L 92.207031 113.277344 C 92.207031 112.578125 92.605469 111.882812 93.304688 111.484375 C 104.164062 105.601562 111.835938 97.132812 114.925781 87.570312 C 115.226562 86.769531 115.921875 86.171875 116.820312 86.171875 L 123.398438 86.171875 C 123.894531 86.171875 124.195312 85.773438 124.195312 85.375 L 124.195312 70.429688 C 124.195312 69.929688 123.796875 69.632812 123.398438 69.632812 L 116.820312 69.632812 C 115.921875 69.632812 115.226562 69.03125 114.925781 68.234375 C 112.335938 60.363281 106.757812 53.289062 98.78125 47.707031 C 97.984375 47.210938 97.6875 46.113281 98.085938 45.316406 C 99.179688 42.726562 100.578125 40.332031 102.273438 38.039062 C 99.179688 38.640625 94.796875 39.734375 88.617188 41.628906 C 88.21875 41.726562 87.722656 41.726562 87.320312 41.53125 C 78.753906 38.140625 69.6875 36.445312 60.417969 36.445312 C 42.480469 36.445312 25.539062 42.824219 14.976562 53.585938 C 14.578125 53.984375 14.078125 54.183594 13.484375 54.183594 C 12.882812 54.183594 12.382812 53.882812 11.984375 53.484375 C 11.1875 52.589844 10.195312 51.992188 9 51.890625 C 7.800781 51.792969 6.703125 52.09375 5.808594 52.890625 C 3.71875 54.382812 3.515625 57.171875 5.011719 59.066406 C 5.507812 59.664062 6.109375 60.0625 6.703125 60.363281 C 7.203125 60.5625 7.601562 60.960938 7.800781 61.558594 C 8 62.054688 8 62.65625 7.703125 63.152344 C 5.3125 67.636719 4.015625 72.71875 4.015625 77.898438 C 4.015625 91.15625 12.785156 103.8125 27.433594 111.585938 C 28.132812 111.882812 28.53125 112.578125 28.53125 113.375 L 28.53125 122.945312 C 28.53125 123.34375 28.828125 123.640625 29.226562 123.640625 L 43.578125 123.640625 C 43.976562 123.640625 44.273438 123.34375 44.273438 122.945312 L 44.273438 120.15625 C 44.273438 119.554688 44.570312 118.957031 44.96875 118.65625 C 45.367188 118.359375 46.070312 118.160156 46.566406 118.257812 C 55.632812 119.953125 64.902344 119.953125 73.96875 118.257812 C 74.171875 118.257812 74.269531 118.160156 74.46875 118.160156 Z M 74.46875 118.160156 "/>
<path style=" stroke:none;fill-rule:nonzero;fill:rgb(7.450981%,7.450981%,7.450981%);fill-opacity:1;" d="M 30.621094 108.792969 C 30.320312 108.792969 30.023438 108.695312 29.726562 108.59375 C 15.773438 101.71875 7.101562 88.464844 8.5 76.507812 C 8.601562 75.410156 9.59375 74.613281 10.691406 74.8125 C 11.789062 74.914062 12.585938 75.90625 12.382812 77.003906 C 11.289062 85.671875 17.570312 98.132812 31.421875 105.007812 C 32.414062 105.503906 32.8125 106.703125 32.316406 107.695312 C 32.015625 108.394531 31.320312 108.792969 30.621094 108.792969 Z M 30.621094 108.792969 "/>
<path style=" stroke:none;fill-rule:nonzero;fill:rgb(92.156863%,66.666669%,70.19608%);fill-opacity:1;" d="M 30.023438 78 C 30.023438 94.570312 43.453125 108 60.019531 108 C 76.585938 108 90.015625 94.570312 90.015625 78 C 90.015625 61.433594 76.585938 48.003906 60.019531 48.003906 C 43.453125 48.003906 30.023438 61.433594 30.023438 78 Z M 30.023438 78 "/>
<path style=" stroke:none;fill-rule:nonzero;fill:rgb(7.450981%,7.450981%,7.450981%);fill-opacity:1;" d="M 60.019531 109.988281 C 42.382812 109.988281 28.03125 95.640625 28.03125 78 C 28.03125 60.363281 42.382812 46.015625 60.019531 46.015625 C 77.65625 46.015625 92.007812 60.363281 92.007812 78 C 91.90625 95.640625 77.554688 109.988281 60.019531 109.988281 Z M 60.019531 50 C 44.570312 50 32.015625 62.554688 32.015625 78 C 32.015625 93.445312 44.570312 106 60.019531 106 C 75.464844 106 88.023438 93.445312 88.023438 78 C 88.023438 62.554688 75.367188 50 60.019531 50 Z M 60.019531 50 "/>
<path style=" stroke:none;fill-rule:nonzero;fill:rgb(100%,100%,100%);fill-opacity:1;" d="M 38.695312 78 C 38.695312 89.78125 48.242188 99.328125 60.019531 99.328125 C 71.796875 99.328125 81.34375 89.78125 81.34375 78 C 81.34375 66.222656 71.796875 56.671875 60.019531 56.671875 C 48.242188 56.671875 38.695312 66.222656 38.695312 78 Z M 38.695312 78 "/>
<path style=" stroke:none;fill-rule:nonzero;fill:rgb(7.450981%,7.450981%,7.450981%);fill-opacity:1;" d="M 60.019531 101.320312 C 47.164062 101.320312 36.703125 90.855469 36.703125 78 C 36.703125 65.148438 47.164062 54.683594 60.019531 54.683594 C 72.875 54.683594 83.335938 65.148438 83.335938 78 C 83.335938 90.855469 72.875 101.320312 60.019531 101.320312 Z M 60.019531 58.667969 C 49.355469 58.667969 40.6875 67.335938 40.6875 78 C 40.6875 88.664062 49.355469 97.335938 60.019531 97.335938 C 70.679688 97.335938 79.351562 88.664062 79.351562 78 C 79.351562 67.335938 70.679688 58.667969 60.019531 58.667969 Z M 60.019531 58.667969 "/>
<path style=" stroke:none;fill-rule:nonzero;fill:rgb(7.450981%,7.450981%,7.450981%);fill-opacity:1;" d="M 60.515625 69.53125 C 59.421875 69.53125 58.523438 68.632812 58.523438 67.539062 L 58.523438 63.152344 C 58.523438 62.054688 59.421875 61.160156 60.515625 61.160156 C 61.613281 61.160156 62.507812 62.054688 62.507812 63.152344 L 62.507812 67.539062 C 62.507812 68.632812 61.613281 69.53125 60.515625 69.53125 Z M 60.515625 69.53125 "/>
<path style=" stroke:none;fill-rule:nonzero;fill:rgb(7.450981%,7.450981%,7.450981%);fill-opacity:1;" d="M 60.515625 94.941406 C 59.421875 94.941406 58.523438 94.046875 58.523438 92.949219 L 58.523438 89.660156 C 58.523438 88.5625 59.421875 87.667969 60.515625 87.667969 C 61.613281 87.667969 62.507812 88.5625 62.507812 89.660156 L 62.507812 92.949219 C 62.507812 94.046875 61.613281 94.941406 60.515625 94.941406 Z M 60.515625 94.941406 "/>
<path style=" stroke:none;fill-rule:nonzero;fill:rgb(7.450981%,7.450981%,7.450981%);fill-opacity:1;" d="M 60.617188 91.15625 C 57.429688 91.15625 54.039062 89.960938 51.648438 86.867188 C 50.953125 85.972656 51.148438 84.777344 51.945312 84.078125 C 52.84375 83.382812 54.039062 83.582031 54.738281 84.378906 C 57.128906 87.46875 60.816406 87.570312 63.207031 86.769531 C 65.203125 86.070312 66.398438 84.777344 66.398438 83.382812 C 66.398438 82.085938 63.304688 81.1875 60.617188 80.390625 C 56.429688 79.097656 51.148438 77.601562 51.148438 72.617188 C 51.148438 70.226562 52.644531 68.035156 55.234375 66.742188 C 58.421875 65.148438 63.804688 64.546875 68.890625 68.234375 C 69.785156 68.933594 69.984375 70.128906 69.289062 71.023438 C 68.585938 71.921875 67.390625 72.121094 66.496094 71.421875 C 63.109375 68.933594 59.320312 69.03125 57.03125 70.226562 C 55.835938 70.828125 55.039062 71.722656 55.039062 72.617188 C 55.039062 74.515625 57.828125 75.410156 61.613281 76.605469 C 65.699219 77.800781 70.183594 79.195312 70.183594 83.382812 C 70.183594 86.46875 67.890625 89.261719 64.304688 90.554688 C 63.304688 90.953125 62.011719 91.15625 60.617188 91.15625 Z M 60.617188 91.15625 "/>
<path style=" stroke:none;fill-rule:nonzero;fill:rgb(49.019608%,52.941179%,57.254905%);fill-opacity:1;" d="M 96.492188 65.84375 C 96.492188 68.210938 98.410156 70.128906 100.773438 70.128906 C 103.140625 70.128906 105.0625 68.210938 105.0625 65.84375 C 105.0625 63.476562 103.140625 61.558594 100.773438 61.558594 C 98.410156 61.558594 96.492188 63.476562 96.492188 65.84375 Z M 96.492188 65.84375 "/>
<path style=" stroke:none;fill-rule:nonzero;fill:rgb(7.450981%,7.450981%,7.450981%);fill-opacity:1;" d="M 100.773438 72.121094 C 97.289062 72.121094 94.5 69.332031 94.5 65.84375 C 94.5 62.355469 97.289062 59.566406 100.773438 59.566406 C 104.265625 59.566406 107.054688 62.355469 107.054688 65.84375 C 107.054688 69.332031 104.265625 72.121094 100.773438 72.121094 Z M 100.773438 63.550781 C 99.480469 63.550781 98.484375 64.546875 98.484375 65.84375 C 98.484375 67.140625 99.480469 68.132812 100.773438 68.132812 C 102.070312 68.132812 103.070312 67.140625 103.070312 65.84375 C 103.070312 64.546875 102.070312 63.550781 100.773438 63.550781 Z M 100.773438 63.550781 "/>
</g>
</svg>
